PathFileType  4	(X/Y/Z) C:\Users\wagnerel85475\Documents\Thesis\opencap-core\Data\3375ffbc-daeb-4a43-b4f7-ac9899cd4c71\MarkerData\PreAugmentation
DataRate	CameraRate	NumFrames	NumMarkers	Units	OrigDataRate	OrigDataStartFrame	OrigNumFrames
60.0	60.0	11	20	m	60.0	309	822
Frame#	Time	Neck			RShoulder			RElbow			RWrist			LShoulder			LElbow			LWrist			midHip			RHip			RKnee			RAnkle			LHip			LKnee			LAnkle			LBigToe			LSmallToe			LHeel			RBigToe			RSmallToe			RHeel			
		X1	Y1	Z1	X2	Y2	Z2	X3	Y3	Z3	X4	Y4	Z4	X5	Y5	Z5	X6	Y6	Z6	X7	Y7	Z7	X8	Y8	Z8	X9	Y9	Z9	X10	Y10	Z10	X11	Y11	Z11	X12	Y12	Z12	X13	Y13	Z13	X14	Y14	Z14	X15	Y15	Z15	X16	Y16	Z16	X17	Y17	Z17	X18	Y18	Z18	X19	Y19	Z19	X20	Y20	Z20	

309	5.1333333	0.7823400	0.5383700	-0.0326800	0.7815200	0.5440100	0.1297400	1.0030100	0.4131900	0.1834400	1.3459300	0.4784400	0.0952600	0.8245100	0.5499800	-0.1931100	1.1564500	0.4080300	-0.2247500	1.4345000	0.4980800	-0.0755700	0.4645900	0.2054000	-0.1131600	0.4811100	0.1949500	0.0000700	0.8074900	0.2869200	0.2215800	0.5187400	-0.1889900	0.1337900	0.4393700	0.2078700	-0.2192700	0.7771400	0.2917700	-0.2874200	0.5382500	-0.1735700	-0.2459500	0.7534600	-0.2202300	-0.3263900	0.6809600	-0.2271800	-0.3515200	0.4680700	-0.2317700	-0.2244700	0.6998500	-0.2312100	0.2326600	0.6547100	-0.2346400	0.2499600	0.5207800	-0.2087700	0.0880600
310	5.1500000	0.7902200	0.5316600	-0.0372800	0.8004700	0.5354200	0.1287800	1.0101800	0.4033900	0.1864500	1.3387500	0.4715500	0.0935400	0.8157900	0.5372600	-0.1896100	1.1643800	0.4026400	-0.2271400	1.4225300	0.4745900	-0.0758400	0.4380800	0.1856300	-0.0827300	0.4827500	0.1749900	0.0156300	0.8009100	0.2864900	0.2175200	0.5274400	-0.1822200	0.1299200	0.4455400	0.1942800	-0.2096800	0.7843200	0.2931700	-0.2921900	0.5381500	-0.1735700	-0.2458500	0.7534600	-0.2202000	-0.3263000	0.6727000	-0.2297600	-0.3553000	0.4679300	-0.2316200	-0.2166800	0.7077500	-0.2283600	0.2281700	0.6647700	-0.2310600	0.2526100	0.5207800	-0.2083900	0.0882700
311	5.1666667	0.7823000	0.5238100	-0.0327300	0.8081200	0.5302000	0.1235600	1.0077000	0.3960800	0.1843100	1.3175500	0.4682200	0.0904500	0.8166500	0.5300100	-0.1889700	1.1638300	0.3920000	-0.2268500	1.4165400	0.4680500	-0.0795800	0.4294600	0.1768500	-0.0834100	0.4489600	0.1666000	0.0230400	0.8097000	0.2803000	0.2205500	0.5269200	-0.1823400	0.1299600	0.4311900	0.1939200	-0.1977300	0.7858700	0.2897800	-0.2917400	0.5381400	-0.1735600	-0.2459000	0.7535300	-0.2201800	-0.3264000	0.6810300	-0.2233900	-0.3509900	0.4681100	-0.2317100	-0.2244000	0.7001100	-0.2312400	0.2325700	0.6547900	-0.2346600	0.2499100	0.5207200	-0.2086400	0.0880400
312	5.1833333	0.7817800	0.5227500	-0.0332000	0.7793600	0.5246100	0.1147800	0.9886500	0.3921400	0.1788000	1.3125800	0.4495500	0.0972500	0.8157100	0.5302100	-0.1894400	1.1649900	0.3883700	-0.2259300	1.4173600	0.4647000	-0.0800800	0.4333800	0.1604000	-0.0829500	0.4531000	0.1545900	0.0208400	0.8041400	0.2734000	0.2166200	0.5274800	-0.1822100	0.1299300	0.4305000	0.1796500	-0.2011700	0.7944600	0.2847200	-0.2955000	0.5381800	-0.1735800	-0.2459000	0.7536300	-0.2201200	-0.3262400	0.6904700	-0.2233300	-0.3551100	0.4680900	-0.2315700	-0.2245500	0.6995800	-0.2314400	0.2327300	0.6546600	-0.2346200	0.2499600	0.5208000	-0.2084000	0.0882900
313	5.2000000	0.7909000	0.5250000	-0.0369100	0.8176600	0.5288700	0.1271200	1.0251300	0.3816400	0.1973500	1.3220300	0.4467700	0.1124300	0.8175400	0.5265900	-0.1887300	1.1578500	0.3840500	-0.2224900	1.4227900	0.4658400	-0.0836000	0.4458800	0.1521700	-0.0868800	0.4714200	0.1482700	0.0118600	0.8093100	0.2817600	0.2208400	0.5271000	-0.1858300	0.1305300	0.4451600	0.1637100	-0.2096000	0.7942100	0.2803400	-0.2958600	0.5382200	-0.1736200	-0.2459300	0.7533700	-0.2201700	-0.3263500	0.6809500	-0.2232700	-0.3509800	0.4681400	-0.2356900	-0.2237600	0.6998400	-0.2313400	0.2326800	0.6547200	-0.2347600	0.2499500	0.5205500	-0.2119300	0.0887000
314	5.2166667	0.7822400	0.5194400	-0.0327900	0.8076400	0.5199600	0.1247900	1.0249800	0.3740200	0.1975600	1.3367300	0.4371300	0.1182200	0.8165400	0.5263800	-0.1892700	1.1591000	0.3760000	-0.2216800	1.4228300	0.4666100	-0.0836700	0.4444600	0.1483100	-0.0876400	0.4833700	0.1516800	0.0154400	0.8101400	0.2751700	0.2204800	0.5276200	-0.1857300	0.1305100	0.4368800	0.1539900	-0.2094300	0.7936500	0.2761800	-0.2962600	0.5381900	-0.1736500	-0.2458800	0.7535000	-0.2201000	-0.3262700	0.6727600	-0.2258200	-0.3547600	0.4681600	-0.2354900	-0.2238100	0.7000000	-0.2353800	0.2321500	0.6546900	-0.2347100	0.2499600	0.5205200	-0.2117700	0.0889700
315	5.2333333	0.7906700	0.5218500	-0.0367800	0.7881100	0.5233700	0.1175600	0.9982200	0.3830800	0.1883500	1.3217300	0.4404200	0.1122500	0.8169600	0.5224900	-0.1890800	1.1654300	0.3784100	-0.2187500	1.4226900	0.4665500	-0.0836400	0.4526400	0.1528700	-0.0837000	0.4827000	0.1541700	0.0149500	0.8063800	0.2697800	0.2220400	0.5377400	-0.1822100	0.1337500	0.4478100	0.1558500	-0.2058400	0.7859300	0.2743700	-0.3000100	0.5382800	-0.1735600	-0.2459000	0.7531300	-0.2201900	-0.3265200	0.6722900	-0.2261700	-0.3549200	0.4779100	-0.2284900	-0.2206500	0.7003600	-0.2352600	0.2320600	0.6547400	-0.2348200	0.2499500	0.5205800	-0.2118700	0.0888700
316	5.2500000	0.7903500	0.5209200	-0.0371300	0.7881200	0.5229300	0.1183400	0.9978100	0.3866400	0.1819600	1.3153400	0.4431200	0.1108700	0.8241000	0.5240600	-0.1934400	1.1587500	0.3785500	-0.2221400	1.4227800	0.4671000	-0.0835600	0.4546100	0.1510200	-0.0838800	0.4946200	0.1576800	0.0185300	0.8079200	0.2742400	0.2213600	0.5381700	-0.1821100	0.1336900	0.4499200	0.1535700	-0.2052200	0.7851700	0.2777400	-0.3004900	0.5383700	-0.1697800	-0.2453200	0.7534000	-0.2200800	-0.3263600	0.6820200	-0.2224400	-0.3585000	0.4776500	-0.2247500	-0.2201300	0.7000200	-0.2353800	0.2322000	0.6649000	-0.2348100	0.2520400	0.5205800	-0.2116500	0.0890400
317	5.2666667	0.7908700	0.5220300	-0.0368000	0.8075300	0.5269900	0.1240200	1.0103500	0.3806500	0.1926600	1.3282000	0.4484900	0.1084200	0.8255700	0.5276800	-0.1927800	1.1654100	0.3849800	-0.2261200	1.4224300	0.4662400	-0.0835900	0.4745500	0.1555500	-0.0923400	0.5131100	0.1587300	0.0177600	0.8003400	0.2713200	0.2177200	0.5376300	-0.1822800	0.1337200	0.4519400	0.1536200	-0.2058500	0.7850700	0.2780000	-0.3005100	0.5382700	-0.1735300	-0.2459000	0.7530900	-0.2202200	-0.3265000	0.6723600	-0.2261800	-0.3548900	0.4779200	-0.2288100	-0.2194000	0.7003100	-0.2352600	0.2320300	0.6547000	-0.2348100	0.2499400	0.5204900	-0.2119500	0.0888500
318	5.2833333	0.7984700	0.5258300	-0.0417900	0.7982000	0.5251600	0.1215000	1.0110000	0.3925700	0.1868100	1.3132500	0.4527700	0.1029300	0.8163900	0.5266200	-0.1969400	1.1582800	0.3851300	-0.2293400	1.4094500	0.4677300	-0.0828300	0.5050900	0.1709300	-0.1064800	0.5137900	0.1636800	0.0100500	0.8006600	0.2719600	0.2175400	0.5380900	-0.1822300	0.1336400	0.4552000	0.1660100	-0.2136200	0.7849300	0.2812000	-0.3010300	0.5383000	-0.1734700	-0.2458800	0.7532400	-0.2201200	-0.3262900	0.6819400	-0.2262700	-0.3590200	0.4777000	-0.2247400	-0.2201900	0.6998700	-0.2353100	0.2322100	0.6546400	-0.2347200	0.2499800	0.5204900	-0.2147700	0.0896300
319	5.3000000	0.7904300	0.5253600	-0.0372800	0.8077900	0.5341000	0.1239600	1.0110900	0.3955500	0.1861700	1.3456300	0.4718300	0.0952600	0.8076900	0.5270600	-0.2005400	1.1571800	0.3896500	-0.2304600	1.4158800	0.4749600	-0.0796200	0.4846500	0.1731200	-0.1053200	0.5120500	0.1698400	0.0091700	0.8079700	0.2838100	0.2213300	0.5271500	-0.1857900	0.1305200	0.4595900	0.1796100	-0.2142100	0.7852800	0.2816700	-0.3000900	0.5384700	-0.1734000	-0.2459400	0.7531100	-0.2202100	-0.3264600	0.6818300	-0.2228000	-0.3585800	0.4779100	-0.2249400	-0.2200700	0.7001100	-0.2353300	0.2320700	0.6545700	-0.2349400	0.2499600	0.5205800	-0.2119100	0.0886700
